<svg width="160" height="160" viewBox="0 0 160 160" fill="none" xmlns="http://www.w3.org/2000/svg">
<path d="M124.792 113.333C124.792 119.667 119.667 124.792 113.334 124.792C107 124.792 101.875 119.667 101.875 113.333C101.875 111.458 102.375 109.708 103.167 108.125H73.5004C74.2921 109.708 74.7921 111.458 74.7921 113.333C74.7921 119.667 69.6671 124.792 63.3337 124.792C57.0004 124.792 51.8754 119.667 51.8754 113.333C51.8754 108.583 54.7921 104.5 58.9587 102.75L52.5837 48.5833C52.3337 46.4583 50.7504 44.6667 48.6671 44.125L37.5837 41.375C35.9171 40.9583 34.8754 39.25 35.2921 37.5833C35.7087 35.9167 37.3754 34.875 39.0837 35.2917L50.1671 38.0833C54.7504 39.2083 58.2087 43.1667 58.7921 47.8333L59.2504 51.9583C59.2504 51.9583 59.5837 51.875 59.7504 51.875H86.5004C86.3754 52.9167 86.2504 53.9167 86.2504 55C86.2504 67.625 96.5421 77.9167 109.167 77.9167C114.375 77.9167 119.167 76.125 123.042 73.2083L121.5 85C121.042 88.375 118.25 91.0417 114.834 91.2917L64.3337 95.2917L65.1254 101.875H113.334C119.667 101.875 124.792 107 124.792 113.333ZM68.5421 113.333C68.5421 110.458 66.2087 108.125 63.3337 108.125C60.4587 108.125 58.1254 110.458 58.1254 113.333C58.1254 116.208 60.4587 118.542 63.3337 118.542C66.2087 118.542 68.5421 116.208 68.5421 113.333ZM118.542 113.333C118.542 110.458 116.209 108.125 113.334 108.125C110.459 108.125 108.125 110.458 108.125 113.333C108.125 116.208 110.459 118.542 113.334 118.542C116.209 118.542 118.542 116.208 118.542 113.333Z" fill="url(#paint0_linear_2981_225)"/>
<path fill-rule="evenodd" clip-rule="evenodd" d="M117.52 35.2751C117.12 34.2457 115.961 33.7356 114.931 34.136C113.902 34.5363 113.392 35.6954 113.792 36.7249L114.17 37.6966C108.397 33.9979 100.633 34.6721 95.5858 39.7192C94.8047 40.5003 94.8047 41.7666 95.5858 42.5477C96.3668 43.3287 97.6332 43.3287 98.4142 42.5477C102.08 38.8818 107.705 38.3681 111.919 41.0068L111.204 41.0821C110.106 41.1977 109.309 42.182 109.425 43.2805C109.54 44.379 110.525 45.1757 111.623 45.0601L116.171 44.5812C118.575 44.3281 120.08 41.8587 119.204 39.6058L117.52 35.2751Z" fill="url(#paint1_linear_2981_225)"/>
<g clip-path="url(#clip0_2981_225)">
<path d="M117.671 66.4071C118.694 67.4295 118.694 69.1218 117.671 70.1442C117.143 70.6731 116.473 70.9199 115.803 70.9199C115.133 70.9199 114.463 70.6731 113.934 70.1442L106.989 63.1987L100.043 70.1442C99.5144 70.6731 98.8445 70.9199 98.1746 70.9199C97.5047 70.9199 96.8349 70.6731 96.306 70.1442C95.2836 69.1218 95.2836 67.4295 96.306 66.4071L103.252 59.4615L96.306 52.516C95.2836 51.4936 95.2836 49.8013 96.306 48.7788C97.3285 47.7564 99.0208 47.7564 100.043 48.7788L106.989 55.7244L113.934 48.7788C114.957 47.7564 116.649 47.7564 117.671 48.7788C118.694 49.8013 118.694 51.4936 117.671 52.516L110.726 59.4615L117.671 66.4071ZM120.21 108.821C120.21 114.179 115.873 118.516 110.514 118.516C105.155 118.516 100.819 114.179 100.819 108.821C100.819 107.234 101.242 105.753 101.912 104.413H76.8092C77.4791 105.753 77.9022 107.234 77.9022 108.821C77.9022 114.179 73.5656 118.516 68.2067 118.516C62.8477 118.516 58.5112 114.179 58.5112 108.821C58.5112 104.801 60.9791 101.346 64.5047 99.8654L59.1105 54.0321C58.899 52.234 57.5592 50.718 55.7964 50.2596L46.4182 47.9327C45.008 47.5801 44.1265 46.1346 44.4791 44.7244C44.8317 43.3141 46.2419 42.4327 47.6874 42.7853L57.0656 45.1474C60.9439 46.0994 63.8701 49.4487 64.3637 53.3974L64.7515 56.8878C64.7515 56.8878 65.0336 56.8173 65.1746 56.8173H87.8092C87.7035 57.6987 87.5977 58.5449 87.5977 59.4615C87.5977 70.1442 96.306 78.8526 106.989 78.8526C111.396 78.8526 115.45 77.3365 118.729 74.8686L117.425 84.8462C117.037 87.7019 114.675 89.9583 111.784 90.1699L69.0528 93.5545L69.7227 99.125H110.514C115.873 99.125 120.21 103.462 120.21 108.821ZM72.6137 108.821C72.6137 106.388 70.6394 104.413 68.2067 104.413C65.774 104.413 63.7996 106.388 63.7996 108.821C63.7996 111.253 65.774 113.228 68.2067 113.228C70.6394 113.228 72.6137 111.253 72.6137 108.821ZM114.921 108.821C114.921 106.388 112.947 104.413 110.514 104.413C108.082 104.413 106.107 106.388 106.107 108.821C106.107 111.253 108.082 113.228 110.514 113.228C112.947 113.228 114.921 111.253 114.921 108.821Z" fill="url(#paint2_linear_2981_225)"/>
</g>
<defs>
<linearGradient id="paint0_linear_2981_225" x1="35.2002" y1="79.9957" x2="124.792" y2="79.9957" gradientUnits="userSpaceOnUse">
<stop stop-color="#37ADFB"/>
<stop offset="1" stop-color="#0F27AD"/>
</linearGradient>
<linearGradient id="paint1_linear_2981_225" x1="110.442" y1="44.9269" x2="118.928" y2="36.4411" gradientUnits="userSpaceOnUse">
<stop stop-color="#F69E32"/>
<stop offset="1" stop-color="#DD2460"/>
</linearGradient>
<linearGradient id="paint2_linear_2981_225" x1="44.4053" y1="80.617" x2="120.215" y2="80.617" gradientUnits="userSpaceOnUse">
<stop stop-color="#F69E32"/>
<stop offset="1" stop-color="#DD2460"/>
</linearGradient>
<clipPath id="clip0_2981_225">
<rect width="27.0769" height="33" fill="white" transform="translate(95 40)"/>
</clipPath>
</defs>
</svg>
